HIERARCHY
ROOT reference
{
  OFFSET 0 0 0
  CHANNELS 6 Xposition Yposition Zposition Zrotation Xrotation Yrotation
  JOINT Hips
  {
    OFFSET 6.63173 83.7844 116.916
    CHANNELS 6 Xposition Yposition Zposition Zrotation Xrotation Yrotation
    JOINT Spine
    {
      OFFSET 0 7.31558 0
      CHANNELS 6 Xposition Yposition Zposition Zrotation Xrotation Yrotation
      JOINT Spine1
      {
        OFFSET 0 21.7428 0
        CHANNELS 6 Xposition Yposition Zposition Zrotation Xrotation Yrotation
        JOINT Neck
        {
          OFFSET 0 21.6535 1.9685
          CHANNELS 6 Xposition Yposition Zposition Zrotation Xrotation Yrotation
          JOINT Head
          {
            OFFSET 0 12.49 -1.78429
            CHANNELS 6 Xposition Yposition Zposition Zrotation Xrotation Yrotation
            End Site
            {
              OFFSET 0 22.3036 0
            }
          }
        }
        JOINT LeftShoulder
        {
          OFFSET 3.56546 21.4407 -0.045508
          CHANNELS 6 Xposition Yposition Zposition Zrotation Xrotation Yrotation
          JOINT LeftArm
          {
            OFFSET 5.86532 0 0
            CHANNELS 6 Xposition Yposition Zposition Zrotation Xrotation Yrotation
            JOINT LeftForeArm
            {
              OFFSET 30.0831 0 0
              CHANNELS 6 Xposition Yposition Zposition Zrotation Xrotation Yrotation
              JOINT LeftHand
              {
                OFFSET 21.3133 0 0
                CHANNELS 6 Xposition Yposition Zposition Zrotation Xrotation Yrotation
                End Site
                {
                  OFFSET 13.3822 0 0
                }
              }
            }
          }
        }
        JOINT RightShoulder
        {
          OFFSET -3.55605 21.4407 -0.045508
          CHANNELS 6 Xposition Yposition Zposition Zrotation Xrotation Yrotation
          JOINT RightArm
          {
            OFFSET -5.86532 0 0
            CHANNELS 6 Xposition Yposition Zposition Zrotation Xrotation Yrotation
            JOINT RightForeArm
            {
              OFFSET -30.0831 0 0
              CHANNELS 6 Xposition Yposition Zposition Zrotation Xrotation Yrotation
              JOINT RightHand
              {
                OFFSET -21.3133 0 0
                CHANNELS 6 Xposition Yposition Zposition Zrotation Xrotation Yrotation
                End Site
                {
                  OFFSET -13.3822 0 0
                }
              }
            }
          }
        }
      }
    }
    JOINT LeftUpLeg
    {
      OFFSET 8.92144 0 0
      CHANNELS 6 Xposition Yposition Zposition Zrotation Xrotation Yrotation
      JOINT LeftLeg
      {
        OFFSET 0 -39.6329 0
        CHANNELS 6 Xposition Yposition Zposition Zrotation Xrotation Yrotation
        JOINT LeftFoot
        {
          OFFSET 0 -38.0584 0
          CHANNELS 6 Xposition Yposition Zposition Zrotation Xrotation Yrotation
          JOINT LeftToeBase
          {
            OFFSET 0 -5.79894 13.3822
            CHANNELS 6 Xposition Yposition Zposition Zrotation Xrotation Yrotation
            End Site
            {
              OFFSET 0 0 3.56858
            }
          }
        }
      }
    }
    JOINT RightUpLeg
    {
      OFFSET -8.92144 0 0
      CHANNELS 6 Xposition Yposition Zposition Zrotation Xrotation Yrotation
      JOINT RightLeg
      {
        OFFSET 0 -39.6329 0
        CHANNELS 6 Xposition Yposition Zposition Zrotation Xrotation Yrotation
        JOINT RightFoot
        {
          OFFSET 0 -38.0584 0
          CHANNELS 6 Xposition Yposition Zposition Zrotation Xrotation Yrotation
          JOINT RightToeBase
          {
            OFFSET 0 -5.79894 13.3822
            CHANNELS 6 Xposition Yposition Zposition Zrotation Xrotation Yrotation
            End Site
            {
              OFFSET 0 0 3.56858
            }
          }
        }
      }
    }
  }
}
MOTION
Frames:	6
Frame Time:	0.004
0 0 0 0 0 -0 -13.6952 76.9901 -207.997 -1.34546 -1.85 7.37776 0 7.31558 0 0.893576 -4.64107 0.160692 1.77636e-015 21.7428 0 0.831679 -1.72616 0.138016 -1.77636e-015 21.6535 1.9685 -3.40521 11.8748 1.22385 0 12.49 -1.78429 -2.10504 -1.43692 1.08567 3.56546 21.4407 -0.045508 11.6768 -0.709073 -8.49315 5.86532 0 0 -17.6096 7.48152 0.769495 30.0831 0 0 -3.43639 -0.287462 6.03168 21.3133 0 0 -0.20939 -0.102653 -2.09669 -3.55605 21.4407 -0.045508 -12.4941 0.513269 -2.1941 -5.86532 2.84217e-014 0 13.7002 1.81145 1.08784 -30.0831 0 0 0.134891 -1.016 -3.59483 -21.3133 2.84217e-014 2.84217e-014 0.976145 -0.974783 4.35277 8.92144 0 0 0.688725 5.50308 -1.1739 0 -39.6329 -2.84217e-014 -2.54885 -0.0788792 -1.76126 -1.77636e-015 -38.0584 0 1.15538 -8.52026 6.54048 7.10543e-015 -5.79894 13.3822 -1.98785e-016 0 -1.59028e-015 -8.92144 -1.42109e-014 0 0.306695 7.51732 2.0247 -3.55271e-015 -39.6329 0 3.06082 -2.43743 -1.61346 0 -38.0584 0 -4.35516 -6.54185 -12.7515 1.42109e-014 -5.79894 13.3822 4.96962e-017 3.97569e-016 -0 
0 0 0 0 0 -0 -13.6952 76.9901 -207.997 -1.34546 -1.85 7.37776 0 7.31558 0 0.882971 -4.63436 0.16069 0 21.7428 0 0.831163 -1.73593 0.138016 -1.77636e-015 21.6535 1.9685 -3.39558 11.8956 1.22394 3.55271e-015 12.49 -1.78429 -2.1211 -1.42835 1.08566 3.56546 21.4407 -0.045508 11.6766 -0.709045 -8.50862 5.86532 0 -2.84217e-014 -17.6119 7.49399 0.786105 30.0831 0 -2.84217e-014 -3.43655 -0.286012 6.03168 21.3133 -1.42109e-014 0 -0.209344 -0.101333 -2.09798 -3.55605 21.4407 -0.045508 -12.4939 0.500852 -2.1941 -5.86532 0 0 13.6977 1.83514 1.09628 -30.0831 0 0 0.135576 -1.0051 -3.59482 -21.3133 -2.84217e-014 0 0.936013 -0.965415 4.3413 8.92144 0 0 0.688086 5.50309 -1.16723 0 -39.6329 -2.84217e-014 -2.54882 -0.0788802 -1.73656 -1.77636e-015 -38.0584 -2.84217e-014 1.15929 -8.52039 6.53306 -7.10543e-015 -5.79894 13.3822 7.95139e-016 0 -1.59028e-015 -8.92144 -1.42109e-014 0 0.303562 7.51721 2.04865 -3.55271e-015 -39.6329 0 3.06041 -2.43742 -1.6231 0 -38.0584 -2.84217e-014 -4.32639 -6.54147 -12.766 0 -5.79894 13.3822 -4.96962e-017 -7.95139e-016 -0 
0 0 0 0 0 -0 -13.6979 76.9901 -207.996 -1.34546 -1.85 7.37776 0 7.31558 2.84217e-014 0.891839 -4.62926 0.160689 -1.77636e-015 21.7428 0 0.819463 -1.74537 0.138017 -3.55271e-015 21.6535 1.9685 -3.41076 11.9006 1.22397 0 12.49 -1.78429 -2.10033 -1.40197 1.08565 3.56546 21.4407 -0.045508 11.6768 -0.709067 -8.49638 5.86532 -2.84217e-014 0 -17.6106 7.48294 0.776993 30.0831 1.42109e-014 2.84217e-014 -3.43289 -0.277685 6.03167 21.3133 -2.84217e-014 0 -0.209072 -0.093497 -2.10726 -3.55605 21.4407 -0.045508 -12.4825 0.51752 -2.1941 -5.86532 0 2.84217e-014 13.6855 1.82229 1.11522 -30.0831 0 -2.84217e-014 0.135715 -1.00097 -3.60168 -21.3133 -2.84217e-014 0 0.96348 -0.960128 4.34972 8.92144 -1.42109e-014 0 0.690015 5.50305 -1.18735 0 -39.6329 -2.84217e-014 -2.54881 -0.0788802 -1.73542 -1.77636e-015 -38.0584 0 1.14034 -8.52062 6.51932 0 -5.79894 13.3822 -1.98785e-016 -7.95139e-016 -1.59028e-015 -8.92144 -1.42109e-014 2.84217e-014 0.304364 7.51724 2.04253 -7.10543e-015 -39.6329 0 3.06087 -2.43743 -1.61243 3.55271e-015 -38.0584 0 -4.3597 -6.5457 -12.7848 0 -5.79894 13.3822 -3.97569e-016 -3.97569e-016 -0 
0 0 0 0 0 -0 -13.7002 76.9901 -207.993 -1.34546 -1.85 7.37776 0 7.31558 0 0.88117 -4.62366 0.160688 -1.77636e-015 21.7428 0 0.823472 -1.75954 0.138018 1.77636e-015 21.6535 1.9685 -3.40665 11.9254 1.22408 0 12.49 -1.78429 -2.11121 -1.39277 1.08565 3.56546 21.4407 -0.045508 11.6834 -0.709049 -8.50623 5.86532 0 0 -17.6161 7.46788 0.777881 30.0831 -1.42109e-014 0 -3.4503 -0.273021 6.03167 21.3133 -1.42109e-014 0 -0.208841 -0.087345 -2.10425 -3.55605 21.4407 -0.045508 -12.4896 0.522988 -2.19411 -5.86532 -2.84217e-014 0 13.6844 1.81575 1.12722 -30.0831 2.84217e-014 0 0.142546 -0.99648 -3.61184 -21.3133 -2.84217e-014 -2.84217e-014 0.958376 -0.955609 4.35597 8.92144 -1.42109e-014 0 0.688988 5.50307 -1.17663 0 -39.6329 -2.84217e-014 -2.54886 -0.0788787 -1.77185 0 -38.0584 -2.84217e-014 1.13193 -8.51995 6.55929 0 -5.79894 13.3822 1.98785e-016 -7.95139e-016 1.59028e-015 -8.92144 -1.42109e-014 0 0.304246 7.51567 2.04385 3.55271e-015 -39.6329 2.84217e-014 3.06053 -2.4351 -1.62188 3.55271e-015 -38.0584 -2.84217e-014 -4.33626 -6.55175 -12.7742 7.10543e-015 -5.79894 13.3822 -3.47873e-016 -7.95139e-016 -0 
0 0 0 0 0 -0 -13.7024 76.9901 -207.991 -1.34546 -1.85 7.37776 0 7.31558 2.84217e-014 0.882074 -4.62113 0.159922 -3.55271e-015 21.7428 0 0.817654 -1.7577 0.136868 1.77636e-015 21.6535 1.9685 -3.39962 11.9362 1.2283 0 12.49 -1.78429 -2.1255 -1.4077 1.08686 3.56546 21.4407 -0.045508 11.6833 -0.717358 -8.50038 5.86532 0 0 -17.6186 7.45728 0.787594 30.0831 0 2.84217e-014 -3.44678 -0.276141 6.0194 21.3133 0 0 -0.20894 -0.0903797 -2.09638 -3.55605 21.4407 -0.045508 -12.4899 0.494423 -2.19117 -5.86532 2.84217e-014 0 13.6859 1.86453 1.12441 -30.0831 0 0 0.116659 -1.10436 -3.58663 -21.3133 0 2.84217e-014 0.835605 -1.0688 4.3757 8.92144 -1.42109e-014 0 0.697226 5.5031 -1.16527 -3.55271e-015 -39.6329 0 -2.54886 -0.078879 -1.76516 1.77636e-015 -38.0584 0 1.15686 -8.52009 6.55046 7.10543e-015 -5.79894 13.3822 -1.98785e-016 0 -1.59028e-015 -8.92144 0 2.84217e-014 0.305556 7.51476 2.03409 -7.10543e-015 -39.6329 0 3.06188 -2.42319 -1.59795 0 -38.0584 0 -4.36485 -6.55955 -12.7845 0 -5.79894 13.3822 -2.98177e-016 0 -7.95139e-016 
0 0 0 0 0 -0 -13.7045 76.9901 -207.988 -1.34517 -1.85234 7.37713 0 7.31558 0 0.92022 -4.58668 0.191041 3.55271e-015 21.7428 0 0.697224 -1.82386 0.165448 -1.77636e-015 21.6535 1.9685 -3.29167 11.9697 1.19756 0 12.49 -1.78429 -2.13635 -1.36666 1.04851 3.56546 21.4407 -0.045508 11.7845 -0.659626 -8.56059 5.86532 0 2.84217e-014 -17.6398 7.40437 0.761494 30.0831 1.42109e-014 0 -3.45076 -0.280566 6.03324 21.3133 1.42109e-014 0 -0.209089 -0.094999 -2.08422 -3.55605 21.4407 -0.045508 -12.3581 0.490552 -2.25165 -5.86532 2.84217e-014 0 13.6281 1.91728 1.12631 -30.0831 0 2.84217e-014 0.146994 -1.02122 -3.57519 -21.3133 0 0 0.834192 -0.985383 4.28747 8.92144 0 2.84217e-014 0.690547 5.50429 -1.18458 3.55271e-015 -39.6329 0 -2.54893 -0.0819905 -1.75214 -1.77636e-015 -38.0584 0 1.15892 -8.50463 6.55676 0 -5.79894 13.3822 -1.98785e-016 0 1.59028e-015 -8.92144 0 0 0.305354 7.51707 2.03501 3.55271e-015 -39.6329 -2.84217e-014 3.06142 -2.41702 -1.613 0 -38.0584 0 -4.36482 -6.56689 -12.7753 -7.10543e-015 -5.79894 13.3822 -2.48481e-016 3.97569e-016 -0 
